<svg width="478" height="445" viewBox="0 0 478 445" fill="none" xmlns="http://www.w3.org/2000/svg">
<path d="M438.482 42.61C413.782 16.061 379.171 0.95502 342.909 0.89902C306.618 0.94102 271.971 16.039 247.233 42.593L238.802 51.502L230.371 42.593C181.284 -10.238 98.662 -13.272 45.832 35.815C43.491 37.991 41.23 40.251 39.054 42.593C-13.018 98.759 -13.018 185.561 39.054 241.727L226.412 439.308C232.894 446.151 243.696 446.444 250.539 439.962C250.763 439.75 250.981 439.532 251.193 439.308L438.483 241.727C490.551 185.567 490.551 98.77 438.482 42.61ZM413.787 218.226H413.77L238.802 402.768L63.818 218.226C24.038 175.31 24.038 108.993 63.818 66.077C99.943 26.923 160.97 24.468 200.124 60.593C202.025 62.347 203.854 64.176 205.608 66.077L226.412 88.025C233.268 94.837 244.337 94.837 251.193 88.025L271.997 66.094C308.122 26.94 369.149 24.485 408.303 60.61C410.204 62.364 412.033 64.193 413.787 66.094C453.913 109.078 454.207 175.516 413.787 218.226Z" fill="white"/>
</svg>
