<svg width="478" height="445" viewBox="0 0 478 445" fill="none" xmlns="http://www.w3.org/2000/svg">
<path d="M342.909 0.89902C379.171 0.95502 413.782 16.061 438.482 42.61C490.551 98.77 490.551 185.567 438.483 241.727L251.193 439.308C250.981 439.532 250.763 439.75 250.539 439.962C243.696 446.444 232.894 446.151 226.412 439.308L39.054 241.727C-13.018 185.561 -13.018 98.759 39.054 42.593C41.23 40.251 43.491 37.991 45.832 35.815C98.662 -13.272 181.284 -10.238 230.371 42.593L238.802 51.502L247.233 42.593C271.971 16.039 306.618 0.94102 342.909 0.89902Z" fill="white"/>
</svg>
